<?xml version="1.0" encoding="UTF-8" standalone="no"?>
<!DOCTYPE svg PUBLIC "-//W3C//DTD SVG 1.1//EN"
 "http://www.w3.org/Graphics/SVG/1.1/DTD/svg11.dtd">
<!-- Generated by graphviz version 2.43.0 (0)
 -->
<!-- Title: mtbc Pages: 1 -->
<svg width="647pt" height="700pt"
 viewBox="0.00 0.00 647.10 699.60" xmlns="http://www.w3.org/2000/svg" xmlns:xlink="http://www.w3.org/1999/xlink">
<g id="graph0" class="graph" transform="scale(1 1) rotate(0) translate(28.8 670.8)">
<title>mtbc</title>
<polygon fill="white" stroke="transparent" points="-28.8,28.8 -28.8,-670.8 618.3,-670.8 618.3,28.8 -28.8,28.8"/>
<!-- reads -->
<g id="node1" class="node">
<title>reads</title>
<path fill="#e1f5ee" stroke="#0f6e56" stroke-width="1.4" d="M382.5,-642C382.5,-642 259.5,-642 259.5,-642 253.5,-642 247.5,-636 247.5,-630 247.5,-630 247.5,-608 247.5,-608 247.5,-602 253.5,-596 259.5,-596 259.5,-596 382.5,-596 382.5,-596 388.5,-596 394.5,-602 394.5,-608 394.5,-608 394.5,-630 394.5,-630 394.5,-636 388.5,-642 382.5,-642"/>
<text text-anchor="middle" x="321" y="-622.6" font-family="Helvetica,sans-Serif" font-size="13.00" fill="#04342c">Sequencing reads</text>
<text text-anchor="middle" x="321" y="-608.6" font-family="Helvetica,sans-Serif" font-size="13.00" fill="#04342c">(FASTQ)</text>
</g>
<!-- qc -->
<g id="node2" class="node">
<title>qc</title>
<path fill="#e1f5ee" stroke="#0f6e56" stroke-width="1.4" d="M369.5,-556C369.5,-556 272.5,-556 272.5,-556 266.5,-556 260.5,-550 260.5,-544 260.5,-544 260.5,-522 260.5,-522 260.5,-516 266.5,-510 272.5,-510 272.5,-510 369.5,-510 369.5,-510 375.5,-510 381.5,-516 381.5,-522 381.5,-522 381.5,-544 381.5,-544 381.5,-550 375.5,-556 369.5,-556"/>
<text text-anchor="middle" x="321" y="-536.6" font-family="Helvetica,sans-Serif" font-size="13.00" fill="#04342c">QC + trim</text>
<text text-anchor="middle" x="321" y="-522.6" font-family="Helvetica,sans-Serif" font-size="13.00" fill="#04342c">FastQC · fastp</text>
</g>
<!-- reads&#45;&gt;qc -->
<g id="edge1" class="edge">
<title>reads&#45;&gt;qc</title>
<path fill="none" stroke="#5f5e5a" stroke-width="1.3" d="M321,-595.93C321,-586.26 321,-574.77 321,-564.32"/>
<polygon fill="#5f5e5a" stroke="#5f5e5a" stroke-width="1.3" points="323.8,-564.21 321,-556.21 318.2,-564.21 323.8,-564.21"/>
</g>
<!-- map -->
<g id="node3" class="node">
<title>map</title>
<path fill="#e1f5ee" stroke="#0f6e56" stroke-width="1.4" d="M392.5,-470C392.5,-470 249.5,-470 249.5,-470 243.5,-470 237.5,-464 237.5,-458 237.5,-458 237.5,-436 237.5,-436 237.5,-430 243.5,-424 249.5,-424 249.5,-424 392.5,-424 392.5,-424 398.5,-424 404.5,-430 404.5,-436 404.5,-436 404.5,-458 404.5,-458 404.5,-464 398.5,-470 392.5,-470"/>
<text text-anchor="middle" x="321" y="-450.6" font-family="Helvetica,sans-Serif" font-size="13.00" fill="#04342c">Map to H37Rv</text>
<text text-anchor="middle" x="321" y="-436.6" font-family="Helvetica,sans-Serif" font-size="13.00" fill="#04342c">bwa&#45;mem · samtools</text>
</g>
<!-- qc&#45;&gt;map -->
<g id="edge2" class="edge">
<title>qc&#45;&gt;map</title>
<path fill="none" stroke="#5f5e5a" stroke-width="1.3" d="M321,-509.93C321,-500.26 321,-488.77 321,-478.32"/>
<polygon fill="#5f5e5a" stroke="#5f5e5a" stroke-width="1.3" points="323.8,-478.21 321,-470.21 318.2,-478.21 323.8,-478.21"/>
</g>
<!-- call -->
<g id="node4" class="node">
<title>call</title>
<path fill="#e1f5ee" stroke="#0f6e56" stroke-width="1.4" d="M371,-384C371,-384 271,-384 271,-384 265,-384 259,-378 259,-372 259,-372 259,-350 259,-350 259,-344 265,-338 271,-338 271,-338 371,-338 371,-338 377,-338 383,-344 383,-350 383,-350 383,-372 383,-372 383,-378 377,-384 371,-384"/>
<text text-anchor="middle" x="321" y="-364.6" font-family="Helvetica,sans-Serif" font-size="13.00" fill="#04342c">Variant calling</text>
<text text-anchor="middle" x="321" y="-350.6" font-family="Helvetica,sans-Serif" font-size="13.00" fill="#04342c">bcftools</text>
</g>
<!-- map&#45;&gt;call -->
<g id="edge3" class="edge">
<title>map&#45;&gt;call</title>
<path fill="none" stroke="#5f5e5a" stroke-width="1.3" d="M321,-423.93C321,-414.26 321,-402.77 321,-392.32"/>
<polygon fill="#5f5e5a" stroke="#5f5e5a" stroke-width="1.3" points="323.8,-392.21 321,-384.21 318.2,-392.21 323.8,-392.21"/>
</g>
<!-- spec -->
<g id="node5" class="node">
<title>spec</title>
<path fill="#eeedfe" stroke="#534ab7" stroke-width="1.8" d="M395.5,-298C395.5,-298 246.5,-298 246.5,-298 240.5,-298 234.5,-292 234.5,-286 234.5,-286 234.5,-270 234.5,-270 234.5,-264 240.5,-258 246.5,-258 246.5,-258 395.5,-258 395.5,-258 401.5,-258 407.5,-264 407.5,-270 407.5,-270 407.5,-286 407.5,-286 407.5,-292 401.5,-298 395.5,-298"/>
<text text-anchor="middle" x="321" y="-274.6" font-family="Helvetica,sans-Serif" font-size="13.00" fill="#26215c">MTBC speciation core</text>
</g>
<!-- call&#45;&gt;spec -->
<g id="edge4" class="edge">
<title>call&#45;&gt;spec</title>
<path fill="none" stroke="#5f5e5a" stroke-width="1.3" d="M321,-337.87C321,-328.13 321,-316.6 321,-306.34"/>
<polygon fill="#5f5e5a" stroke="#5f5e5a" stroke-width="1.3" points="323.8,-306.08 321,-298.08 318.2,-306.08 323.8,-306.08"/>
</g>
<!-- rd -->
<g id="node6" class="node">
<title>rd</title>
<path fill="#fbeaf0" stroke="#993556" stroke-width="1.4" d="M154,-218C154,-218 12,-218 12,-218 6,-218 0,-212 0,-206 0,-206 0,-184 0,-184 0,-178 6,-172 12,-172 12,-172 154,-172 154,-172 160,-172 166,-178 166,-184 166,-184 166,-206 166,-206 166,-212 160,-218 154,-218"/>
<text text-anchor="middle" x="83" y="-198.6" font-family="Helvetica,sans-Serif" font-size="13.00" fill="#4b1528">RD&#45;Analyzer</text>
<text text-anchor="middle" x="83" y="-184.6" font-family="Helvetica,sans-Serif" font-size="13.00" fill="#4b1528">regions of difference</text>
</g>
<!-- spec&#45;&gt;rd -->
<g id="edge5" class="edge">
<title>spec&#45;&gt;rd</title>
<path fill="none" stroke="#5f5e5a" stroke-width="1.3" d="M264.9,-257.91C232.32,-246.82 190.91,-232.73 155.84,-220.79"/>
<polygon fill="#5f5e5a" stroke="#5f5e5a" stroke-width="1.3" points="156.47,-218.05 147.99,-218.12 154.66,-223.35 156.47,-218.05"/>
</g>
<!-- tbp -->
<g id="node7" class="node">
<title>tbp</title>
<path fill="#fbeaf0" stroke="#993556" stroke-width="1.4" d="M428,-218C428,-218 214,-218 214,-218 208,-218 202,-212 202,-206 202,-206 202,-184 202,-184 202,-178 208,-172 214,-172 214,-172 428,-172 428,-172 434,-172 440,-178 440,-184 440,-184 440,-206 440,-206 440,-212 434,-218 428,-218"/>
<text text-anchor="middle" x="321" y="-198.6" font-family="Helvetica,sans-Serif" font-size="13.00" fill="#4b1528">TB&#45;Profiler</text>
<text text-anchor="middle" x="321" y="-184.6" font-family="Helvetica,sans-Serif" font-size="13.00" fill="#4b1528">lineage + WHO drug resistance</text>
</g>
<!-- spec&#45;&gt;tbp -->
<g id="edge6" class="edge">
<title>spec&#45;&gt;tbp</title>
<path fill="none" stroke="#5f5e5a" stroke-width="1.3" d="M321,-257.8C321,-248.43 321,-236.92 321,-226.39"/>
<polygon fill="#5f5e5a" stroke="#5f5e5a" stroke-width="1.3" points="323.8,-226.21 321,-218.21 318.2,-226.21 323.8,-226.21"/>
</g>
<!-- snpit -->
<g id="node8" class="node">
<title>snpit</title>
<path fill="#fbeaf0" stroke="#993556" stroke-width="1.4" d="M577.5,-218C577.5,-218 488.5,-218 488.5,-218 482.5,-218 476.5,-212 476.5,-206 476.5,-206 476.5,-184 476.5,-184 476.5,-178 482.5,-172 488.5,-172 488.5,-172 577.5,-172 577.5,-172 583.5,-172 589.5,-178 589.5,-184 589.5,-184 589.5,-206 589.5,-206 589.5,-212 583.5,-218 577.5,-218"/>
<text text-anchor="middle" x="533" y="-198.6" font-family="Helvetica,sans-Serif" font-size="13.00" fill="#4b1528">SNP&#45;IT</text>
<text text-anchor="middle" x="533" y="-184.6" font-family="Helvetica,sans-Serif" font-size="13.00" fill="#4b1528">SNP barcode</text>
</g>
<!-- spec&#45;&gt;snpit -->
<g id="edge7" class="edge">
<title>spec&#45;&gt;snpit</title>
<path fill="none" stroke="#5f5e5a" stroke-width="1.3" d="M370.97,-257.91C400.09,-246.78 437.12,-232.63 468.43,-220.67"/>
<polygon fill="#5f5e5a" stroke="#5f5e5a" stroke-width="1.3" points="469.78,-223.15 476.25,-217.68 467.78,-217.92 469.78,-223.15"/>
</g>
<!-- cons -->
<g id="node9" class="node">
<title>cons</title>
<path fill="#cecbf6" stroke="#534ab7" stroke-width="1.8" d="M416.5,-132C416.5,-132 225.5,-132 225.5,-132 219.5,-132 213.5,-126 213.5,-120 213.5,-120 213.5,-98 213.5,-98 213.5,-92 219.5,-86 225.5,-86 225.5,-86 416.5,-86 416.5,-86 422.5,-86 428.5,-92 428.5,-98 428.5,-98 428.5,-120 428.5,-120 428.5,-126 422.5,-132 416.5,-132"/>
<text text-anchor="middle" x="321" y="-112.6" font-family="Helvetica,sans-Serif" font-size="13.00" fill="#26215c">Consensus species call</text>
<text text-anchor="middle" x="321" y="-98.6" font-family="Helvetica,sans-Serif" font-size="13.00" fill="#26215c">majority vote + conflict flag</text>
</g>
<!-- rd&#45;&gt;cons -->
<g id="edge8" class="edge">
<title>rd&#45;&gt;cons</title>
<path fill="none" stroke="#5f5e5a" stroke-width="1.3" d="M145.53,-171.93C177.79,-160.54 217.26,-146.62 250.58,-134.85"/>
<polygon fill="#5f5e5a" stroke="#5f5e5a" stroke-width="1.3" points="251.86,-137.37 258.47,-132.07 250,-132.09 251.86,-137.37"/>
</g>
<!-- tbp&#45;&gt;cons -->
<g id="edge9" class="edge">
<title>tbp&#45;&gt;cons</title>
<path fill="none" stroke="#5f5e5a" stroke-width="1.3" d="M321,-171.93C321,-162.26 321,-150.77 321,-140.32"/>
<polygon fill="#5f5e5a" stroke="#5f5e5a" stroke-width="1.3" points="323.8,-140.21 321,-132.21 318.2,-140.21 323.8,-140.21"/>
</g>
<!-- snpit&#45;&gt;cons -->
<g id="edge10" class="edge">
<title>snpit&#45;&gt;cons</title>
<path fill="none" stroke="#5f5e5a" stroke-width="1.3" d="M477.3,-171.93C448.81,-160.64 414,-146.85 384.48,-135.15"/>
<polygon fill="#5f5e5a" stroke="#5f5e5a" stroke-width="1.3" points="385.17,-132.41 376.7,-132.07 383.1,-137.62 385.17,-132.41"/>
</g>
<!-- report -->
<g id="node10" class="node">
<title>report</title>
<path fill="#eaf3de" stroke="#3b6d11" stroke-width="1.4" d="M390,-46C390,-46 252,-46 252,-46 246,-46 240,-40 240,-34 240,-34 240,-12 240,-12 240,-6 246,0 252,0 252,0 390,0 390,0 396,0 402,-6 402,-12 402,-12 402,-34 402,-34 402,-40 396,-46 390,-46"/>
<text text-anchor="middle" x="321" y="-26.6" font-family="Helvetica,sans-Serif" font-size="13.00" fill="#173404">Surveillance report</text>
<text text-anchor="middle" x="321" y="-12.6" font-family="Helvetica,sans-Serif" font-size="13.00" fill="#173404">MultiQC + summary</text>
</g>
<!-- cons&#45;&gt;report -->
<g id="edge11" class="edge">
<title>cons&#45;&gt;report</title>
<path fill="none" stroke="#5f5e5a" stroke-width="1.3" d="M321,-85.93C321,-76.26 321,-64.77 321,-54.32"/>
<polygon fill="#5f5e5a" stroke="#5f5e5a" stroke-width="1.3" points="323.8,-54.21 321,-46.21 318.2,-54.21 323.8,-54.21"/>
</g>
</g>
</svg>
